<svg xmlns="http://www.w3.org/2000/svg" width="188" height="40" viewBox="0 0 642 137"><g fill="none" fill-rule="evenodd"><path fill="gold" fill-rule="nonzero" d="M24.5,69.1 C26,69.1 26.5,69.9 26.4,71.1 L24.2,88.6 L32.9,88.6 L35.1,71.3 C35.3,69.8 35.9,69.1 37.4,69.1 L42.2,69.1 C43.7,69.1 44.2,69.9 44.1,71.1 L41.9,88.6 L50.7,88.6 C52.7,88.6 52.7,89.6 52.7,90.6 L52.7,95.6 C52.7,96.6 52.7,97.6 50.7,97.6 L40.8,97.6 L39.7,107 L48,107 C50,107 50,108 50,109 L50,114 L50.01,114.19 C50.09,115.12 49.96,116 48,116 L38.6,116 L36.01,137 L27.03,137 L29.6,116 L20.9,116 L18.31,137 L9.33,137 L11.9,116 L2,116 C0.5,116 0,115.5 0,114 L0,109 C0,107.5 0.5,107 2,107 L13,107 L14.1,97.6 L4.7,97.6 C3.2,97.6 2.7,97.1 2.7,95.6 L2.7,90.6 C2.7,89.1 3.2,88.6 4.7,88.6 L15.2,88.6 L17.4,71.3 C17.6,69.8 18.2,69.1 19.7,69.1 L24.5,69.1 Z M74.7,68.5 C81.6,68.5 88.3,73.8 89.1,81.9 C89.3,84.6 89.1,85.1 87.1,85.1 L81.6,85.1 C80.1,85.1 79.6,84.6 79.6,83.1 C79.6,79.5 77.5,77.8 74.8,77.8 C70.2,77.8 69.7,82.3 69.9,84.3 C71,95.5 89.1,105.7 91,121.4 C91.74,127.47 88.93,133.63 83.83,137.00 L66.09,137.00 C61.60,134.02 58.77,128.83 58.9,123.2 C58.9,121.5 59.3,121 61,121 L66.8,121 C68.1,121 68.8,121.5 68.8,123.3 C68.8,127.2 70.8,130.4 74.9,130.4 C78.9,130.4 80.7,127.3 81.1,124.5 C83,112.6 60.9,101 59.9,84.4 C59.4,75.8 65.6,68.5 74.7,68.5 Z M112.7,88.6 C123.2,88.6 127.6,98 127.3,103.8 C127.2,105.3 126.8,105.8 125.3,105.8 L119.6,105.8 C117.8,105.8 117.7,104.9 117.6,103.2 C117.4,99 114.8,97.9 112.8,97.9 C110.1,97.9 107.8,99.5 107.8,105.5 L107.8,122.8 C107.8,128.8 110.1,130.4 112.8,130.4 C114.8,130.4 117.4,129.3 117.6,125.1 C117.7,123.4 117.8,122.5 119.6,122.5 L125.3,122.5 C126.8,122.5 127.2,123 127.3,124.5 C127.49,128.29 125.66,133.76 121.29,137.00 L104.09,137.00 C100.36,134.28 97.6,129.31 97.6,121.2 L97.6,107.1 C97.6,93.2 105.5,88.6 112.7,88.6 Z M144.4,89 C145.9,89 146.4,89.5 146.4,91 L146.4,137 L136.4,137 L136.4,91 C136.4,89.5 136.9,89 138.4,89 L144.4,89 Z M170.4,88.6 C177.5,88.6 185.5,93.2 185.5,107.1 L185.5,113.8 C185.5,115.4 185,115.8 183.4,115.8 L167.4,115.8 C165.9,115.8 165.4,116.3 165.4,117.8 L165.4,122.8 L165.5,122.8 C165.5,128.8 167.8,130.4 170.5,130.4 C172.5,130.4 175.1,129.3 175.3,125.1 C175.4,123.4 175.5,122.5 177.3,122.5 L183,122.5 C184.5,122.5 184.9,123 185,124.5 C185.19,128.29 183.36,133.76 178.99,137.00 L161.75,137.00 C158.04,134.29 155.3,129.34 155.3,121.2 L155.3,107.1 C155.3,93.2 163.2,88.6 170.4,88.6 Z M225.6,105.7 L225.6,137 L215.6,137 L215.6,105.5 L215.5,105.5 C215.5,99.5 212.8,97.9 210.1,97.9 C207.4,97.9 204.7,99.5 204.7,105.5 L204.7,137 L194.7,137 L194.7,91 C194.7,89.5 195.2,89 196.7,89 L202.4,89 C203.9,89 204.4,89.5 204.4,91 L204.4,92.9 C205.9,90.7 208.3,88.8 212.1,88.6 C219.6,88.3 225.6,93.3 225.6,105.7 Z M249.2,88.6 C259.7,88.6 264.1,98 263.8,103.8 C263.7,105.3 263.3,105.8 261.8,105.8 L256.1,105.8 C254.3,105.8 254.2,104.9 254.1,103.2 C253.9,99 251.3,97.9 249.3,97.9 C246.6,97.9 244.3,99.5 244.3,105.5 L244.3,122.8 C244.3,128.8 246.6,130.4 249.3,130.4 C251.3,130.4 253.9,129.3 254.1,125.1 C254.2,123.4 254.3,122.5 256.1,122.5 L261.8,122.5 C263.3,122.5 263.7,123 263.8,124.5 C263.99,128.29 262.16,133.76 257.79,137.00 L240.54,137.00 C236.83,134.28 234.1,129.31 234.1,121.2 L234.1,107.1 C234.1,93.2 242,88.6 249.2,88.6 Z M286.8,88.6 C293.9,88.6 301.9,93.2 301.9,107.1 L301.9,113.8 C301.9,115.4 301.4,115.8 299.8,115.8 L283.8,115.8 C282.3,115.8 281.8,116.3 281.8,117.8 L281.8,122.8 L281.9,122.8 C281.9,128.8 284.2,130.4 286.9,130.4 C288.9,130.4 291.5,129.3 291.7,125.1 C291.8,123.4 291.9,122.5 293.7,122.5 L299.4,122.5 C300.9,122.5 301.3,123 301.4,124.5 C301.59,128.29 299.76,133.76 295.39,137.00 L278.15,137.00 C274.44,134.29 271.7,129.34 271.7,121.2 L271.7,107.1 C271.7,93.2 279.6,88.6 286.8,88.6 Z M334.2,68.9 C335.7,68.9 336.2,69.4 336.2,70.9 L336.2,76.3 C336.2,77.8 335.7,78.3 334.2,78.3 L323.1,78.3 C321.22,78.3 321.10,78.3 321.10,79.95 L321.10,95.84 C321.10,97.5 321.22,97.5 323.1,97.5 L331.1,97.5 C332.6,97.5 333.1,98 333.1,99.5 L333.1,104.9 C333.1,106.4 332.6,106.9 331.1,106.9 L323.1,106.9 C321.22,106.9 321.10,106.9 321.10,108.55 L321.1,137 L311,137 L311,70.9 C311,69.4 311.5,68.9 313,68.9 L334.2,68.9 Z M357.2,88.6 C364.3,88.6 372.3,93.2 372.3,107.1 L372.3,121.2 C372.3,129.34 369.58,134.29 365.89,137.00 L348.55,137.00 C344.84,134.29 342.1,129.34 342.1,121.2 L342.1,107.1 C342.1,93.2 350,88.6 357.2,88.6 Z M389.4,89 C390.9,89 391.4,89.5 391.4,91 L391.4,92.2 C393.7,89.9 396.5,89.1 398.6,89 L399.6,89 C401.1,89 401.6,89.5 401.6,91 L401.6,96.5 C401.6,98 401.1,98.9 399.6,98.5 C398,98.2 397.3,98.1 396.4,98.1 C391.65,98.1 391.41,102.79 391.40,107.54 L391.4,137 L381.4,137 L381.4,91 C381.4,89.5 381.9,89 383.4,89 L389.4,89 Z M415.5,69 C417,69 417.5,69.5 417.5,71 L417.5,123.2 C417.5,128.4 420.4,130.4 423.5,130.4 C426.6,130.4 429.5,128.4 429.5,123.2 L429.5,71 C429.7,69.5 430.2,69 431.7,69 L437.7,69 C439.2,69 439.7,69.5 439.7,71 L439.7,120.6 C439.7,128.95 436.91,134.17 432.86,137.00 L414.37,137.00 C410.32,134.17 407.5,128.95 407.5,120.6 L407.5,71 C407.5,69.5 408,69 409.5,69 L415.5,69 Z M457.3,68.9 C458.8,68.9 459.3,69.4 459.3,70.9 L459.3,109.3 L469.5,90.5 C470.3,89 470.7,89 471.7,89 L478.8,89 C479.7,89 480.6,89.4 479.7,91.1 L469.4,110.1 L480.36,137 L470.61,137 L463.3,119.4 L459.3,126.7 L459.3,137 L449.3,137 L449.3,70.9 C449.3,69.4 449.8,68.9 451.3,68.9 L457.3,68.9 Z M495.4,89 C496.9,89 497.4,89.5 497.4,91 L497.4,92.2 C499.7,89.9 502.5,89.1 504.6,89 L505.6,89 C507.1,89 507.6,89.5 507.6,91 L507.6,96.5 C507.6,98 507.1,98.9 505.6,98.5 C504,98.2 503.3,98.1 502.4,98.1 C497.65,98.1 497.41,102.79 497.40,107.54 L497.4,137 L487.4,137 L487.4,91 C487.4,89.5 487.9,89 489.4,89 L495.4,89 Z M527.6,88.5 C535.1,88.5 542.2,94.3 542.2,104 L542.2,132.3 L542,132.3 C542.09,134.28 542.45,135.82 542.75,137.00 L533.10,137.00 C533.06,136.76 533.03,136.49 533,136.2 L532.98,136.21 C532.90,136.29 532.60,136.60 532.08,137.00 L516.43,137.00 C513.64,134.80 511.9,131.21 511.9,126.2 L511.9,121.8 C511.9,113.96 516.72,111.09 521.70,109.26 L522.18,109.09 L522.18,109.09 L522.66,108.92 C524.35,108.34 526.02,107.85 527.5,107.3 C530.5,106.2 532,104.7 532,102.3 C532,100 530.2,97.8 527.5,97.8 C525,97.8 522.6,99.9 522.8,103.7 C522.9,105.2 522.4,105.7 520.8,105.7 L515.2,105.7 C513.7,105.7 513.3,105.2 513.2,103.7 C512.9,95.4 519.3,88.5 527.6,88.5 Z M559.5,89 C561,89 561.5,89.5 561.5,91 L561.5,137 L551.5,137 L551.5,91 C551.5,89.5 552,89 553.5,89 L559.5,89 Z M602.6,105.7 L602.6,137 L592.6,137 L592.6,105.5 L592.5,105.5 C592.5,99.5 589.8,97.9 587.1,97.9 C584.4,97.9 581.7,99.5 581.7,105.5 L581.7,137 L571.7,137 L571.7,91 C571.7,89.5 572.2,89 573.7,89 L579.4,89 C580.9,89 581.4,89.5 581.4,91 L581.4,92.9 C582.9,90.7 585.3,88.8 589.1,88.6 C596.6,88.3 602.6,93.3 602.6,105.7 Z M626,88.6 C633.1,88.6 641.1,93.2 641.1,107.1 L641.1,113.8 C641.1,115.4 640.6,115.8 639,115.8 L623,115.8 C621.5,115.8 621,116.3 621,117.8 L621,122.8 L621.1,122.8 C621.1,128.8 623.4,130.4 626.1,130.4 C628.1,130.4 630.7,129.3 630.9,125.1 C631,123.4 631.1,122.5 632.9,122.5 L638.6,122.5 C640.1,122.5 640.5,123 640.6,124.5 C640.79,128.29 638.96,133.76 634.59,137.00 L617.35,137.00 C613.64,134.29 610.9,129.34 610.9,121.2 L610.9,107.1 C610.9,93.2 618.8,88.6 626,88.6 Z M531.9,114.4 C526.5,116.8 521.9,117.9 521.9,122.9 L521.90,123.97 C521.91,125.75 522.17,130.4 526.9,130.4 C531.2,130.4 531.8,126.6 531.9,122.4 L531.9,114.4 Z M357.3,97.9 C354.6,97.9 352.3,99.5 352.3,105.5 L352.3,122.8 C352.3,128.8 354.6,130.4 357.3,130.4 C360,130.4 362.3,128.8 362.3,122.8 L362.3,105.5 C362.3,99.5 360,97.9 357.3,97.9 Z M31.7,97.5 L23,97.5 L21.9,106.9 L30.6,106.9 L31.7,97.5 Z M286.9,97.9 C284.3,97.9 282.1,99.4 281.9,104.9 L281.90,105.24 C281.90,106.79 282.00,106.89 283.55,106.89 L290.24,106.89 C291.9,106.89 291.9,106.77 291.9,104.9 C291.8,99.4 289.5,97.9 286.9,97.9 Z M170.5,97.9 C167.9,97.9 165.7,99.4 165.5,104.9 L165.50,105.24 C165.50,106.79 165.60,106.89 167.15,106.89 L173.84,106.89 C175.5,106.89 175.5,106.77 175.5,104.9 C175.4,99.4 173.1,97.9 170.5,97.9 Z M626.1,97.9 C623.5,97.9 621.3,99.4 621.1,104.9 L621.10,105.24 C621.10,106.79 621.20,106.89 622.75,106.89 L629.44,106.89 C631.1,106.89 631.1,106.77 631.1,104.9 C631,99.4 628.7,97.9 626.1,97.9 Z M556.5,73.3 C559.6,73.3 562.1,75.8 562.1,78.9 C562.1,82.1 559.6,84.5 556.5,84.5 C553.3,84.5 550.9,82.1 550.9,78.9 C550.9,75.8 553.3,73.3 556.5,73.3 Z"/><path stroke="gold" stroke-width="3.38" d="M170.5,89.8 L170.5,66.8 C170.5,61.2 175,56.7 180.6,56.7 L180.6,56.7 C184.6,56.7 188.1,59.3 189.2,63.2 C189.9,65.7 190.8,68 191.7,68 C195.4,68 195.4,46.7 199.1,46.7 C202.8,46.7 202.8,68 206.5,68 C210.2,68 210.2,46.7 213.9,46.7 C217.6,46.7 217.6,68 221.3,68 C225,68 225,46.7 228.7,46.7 C232.4,46.7 232.4,68 236.1,68 C239.8,68 239.8,46.7 243.5,46.7 C247.2,46.7 247.2,68 250.9,68 C254.6,68 254.6,46.7 258.3,46.7 C262,46.7 262,68 265.7,68 C266.5,68 267.3,65.8 268,63.4 C269.1,59.5 272.6,56.7 276.7,56.7 L276.8,56.7 C282.4,56.7 286.9,61.2 286.9,66.8 L286.9,91.6"/><path stroke="gold" stroke-linecap="round" stroke-width="3.38" d="M357.2,93.3 L357.2,32 C357.2,23.2 367,17.9 374.4,22.7 L422.3,54"/><path fill="gold" fill-rule="nonzero" d="M16,-0.00 C16,-0.00 14.91,24.48 9.91,28.91 C9.23,29.73 8.32,30.33 7.27,30.65 C8.88,25.50 9.3,16.39 9.3,16.39 C9.3,16.39 9.3,16.39 9.29,16.39 L9.29,16.40 C9.25,16.45 8.84,17.00 4.4,22.99 C2.62,25.39 1.55,27.17 0.91,28.46 C0.33,27.57 0,26.49 0,25.29 C0,24.01 0.41,22.83 1.11,21.89 C1.98,19.71 3.84,16.25 7.8,10.99 C14.58,1.97 15.75,0.35 15.95,0.06 L15.97,0.04 C15.97,0.03 15.98,0.02 15.98,0.02 L15.99,0.01 L15.99,0.01 L15.99,0.00 L15.99,0.00 C16,-0.00 16,-0.00 16,-0.00 Z" transform="translate(135.8 53.6)"/><g stroke="gold" stroke-linecap="round" stroke-width="3.38" transform="translate(423.3 60.3)"><line x1=".5" x2=".5" y1=".5" y2=".5"/><line x1=".5" x2=".5" y1="9.6" y2="32.3" stroke-dasharray=".045 9.03"/><line x1=".5" x2=".5" y1="36.8" y2="36.9"/></g><g stroke="gold" stroke-width="3.38" transform="translate(536.1 58.8)"><line x1="18.7" x2="34.3" y1="22.1" y2="8.9" stroke-linecap="round"/><path d="M0,20 C0,8.9 9,0 20,0 C31.1,0 40,9 40,20"/></g></g></svg>