<svg width="1000" height="1000" viewBox="0 0 27 27" xmlns="http://www.w3.org/2000/svg"><g transform="translate(1, 1)" shape-rendering="crispEdges"><rect fill-opacity="1" fill="rgb(255, 255, 255)" x="-1" y="-1" width="27" height="27" ry="0" rx="0"></rect><g fill-opacity="1" fill="rgb(0, 0, 0)"><rect ry="0" stroke-width="0" x="8" y="0" width="1" height="1"></rect><rect ry="0" stroke-width="0" x="9" y="0" width="1" height="1"></rect><rect ry="0" stroke-width="0" x="10" y="0" width="1" height="1"></rect><rect ry="0" stroke-width="0" x="11" y="0" width="1" height="1"></rect><rect ry="0" stroke-width="0" x="13" y="0" width="1" height="1"></rect><rect ry="0" stroke-width="0" x="11" y="1" width="1" height="1"></rect><rect ry="0" stroke-width="0" x="12" y="1" width="1" height="1"></rect><rect ry="0" stroke-width="0" x="13" y="1" width="1" height="1"></rect><rect ry="0" stroke-width="0" x="9" y="2" width="1" height="1"></rect><rect ry="0" stroke-width="0" x="11" y="2" width="1" height="1"></rect><rect ry="0" stroke-width="0" x="13" y="2" width="1" height="1"></rect><rect ry="0" stroke-width="0" x="14" y="2" width="1" height="1"></rect><rect ry="0" stroke-width="0" x="16" y="2" width="1" height="1"></rect><rect ry="0" stroke-width="0" x="10" y="3" width="1" height="1"></rect><rect ry="0" stroke-width="0" x="11" y="3" width="1" height="1"></rect><rect ry="0" stroke-width="0" x="12" y="3" width="1" height="1"></rect><rect ry="0" stroke-width="0" x="13" y="3" width="1" height="1"></rect><rect ry="0" stroke-width="0" x="10" y="4" width="1" height="1"></rect><rect ry="0" stroke-width="0" x="11" y="4" width="1" height="1"></rect><rect ry="0" stroke-width="0" x="12" y="4" width="1" height="1"></rect><rect ry="0" stroke-width="0" x="13" y="4" width="1" height="1"></rect><rect ry="0" stroke-width="0" x="14" y="4" width="1" height="1"></rect><rect ry="0" stroke-width="0" x="16" y="4" width="1" height="1"></rect><rect ry="0" stroke-width="0" x="9" y="5" width="1" height="1"></rect><rect ry="0" stroke-width="0" x="11" y="5" width="1" height="1"></rect><rect ry="0" stroke-width="0" x="13" y="5" width="1" height="1"></rect><rect ry="0" stroke-width="0" x="8" y="6" width="1" height="1"></rect><rect ry="0" stroke-width="0" x="10" y="6" width="1" height="1"></rect><rect ry="0" stroke-width="0" x="12" y="6" width="1" height="1"></rect><rect ry="0" stroke-width="0" x="14" y="6" width="1" height="1"></rect><rect ry="0" stroke-width="0" x="16" y="6" width="1" height="1"></rect><rect ry="0" stroke-width="0" x="8" y="7" width="1" height="1"></rect><rect ry="0" stroke-width="0" x="9" y="7" width="1" height="1"></rect><rect ry="0" stroke-width="0" x="11" y="7" width="1" height="1"></rect><rect ry="0" stroke-width="0" x="13" y="7" width="1" height="1"></rect><rect ry="0" stroke-width="0" x="15" y="7" width="1" height="1"></rect><rect ry="0" stroke-width="0" x="16" y="7" width="1" height="1"></rect><rect ry="0" stroke-width="0" x="0" y="8" width="1" height="1"></rect><rect ry="0" stroke-width="0" x="1" y="8" width="1" height="1"></rect><rect ry="0" stroke-width="0" x="3" y="8" width="1" height="1"></rect><rect ry="0" stroke-width="0" x="4" y="8" width="1" height="1"></rect><rect ry="0" stroke-width="0" x="6" y="8" width="1" height="1"></rect><rect ry="0" stroke-width="0" x="9" y="8" width="1" height="1"></rect><rect ry="0" stroke-width="0" x="11" y="8" width="1" height="1"></rect><rect ry="0" stroke-width="0" x="12" y="8" width="1" height="1"></rect><rect ry="0" stroke-width="0" x="14" y="8" width="1" height="1"></rect><rect ry="0" stroke-width="0" x="16" y="8" width="1" height="1"></rect><rect ry="0" stroke-width="0" x="18" y="8" width="1" height="1"></rect><rect ry="0" stroke-width="0" x="24" y="8" width="1" height="1"></rect><rect ry="0" stroke-width="0" x="0" y="9" width="1" height="1"></rect><rect ry="0" stroke-width="0" x="1" y="9" width="1" height="1"></rect><rect ry="0" stroke-width="0" x="2" y="9" width="1" height="1"></rect><rect ry="0" stroke-width="0" x="4" y="9" width="1" height="1"></rect><rect ry="0" stroke-width="0" x="7" y="9" width="1" height="1"></rect><rect ry="0" stroke-width="0" x="8" y="9" width="1" height="1"></rect><rect ry="0" stroke-width="0" x="10" y="9" width="1" height="1"></rect><rect ry="0" stroke-width="0" x="11" y="9" width="1" height="1"></rect><rect ry="0" stroke-width="0" x="12" y="9" width="1" height="1"></rect><rect ry="0" stroke-width="0" x="15" y="9" width="1" height="1"></rect><rect ry="0" stroke-width="0" x="19" y="9" width="1" height="1"></rect><rect ry="0" stroke-width="0" x="20" y="9" width="1" height="1"></rect><rect ry="0" stroke-width="0" x="21" y="9" width="1" height="1"></rect><rect ry="0" stroke-width="0" x="22" y="9" width="1" height="1"></rect><rect ry="0" stroke-width="0" x="23" y="9" width="1" height="1"></rect><rect ry="0" stroke-width="0" x="3" y="10" width="1" height="1"></rect><rect ry="0" stroke-width="0" x="6" y="10" width="1" height="1"></rect><rect ry="0" stroke-width="0" x="7" y="10" width="1" height="1"></rect><rect ry="0" stroke-width="0" x="8" y="10" width="1" height="1"></rect><rect ry="0" stroke-width="0" x="9" y="10" width="1" height="1"></rect><rect ry="0" stroke-width="0" x="11" y="10" width="1" height="1"></rect><rect ry="0" stroke-width="0" x="13" y="10" width="1" height="1"></rect><rect ry="0" stroke-width="0" x="14" y="10" width="1" height="1"></rect><rect ry="0" stroke-width="0" x="15" y="10" width="1" height="1"></rect><rect ry="0" stroke-width="0" x="17" y="10" width="1" height="1"></rect><rect ry="0" stroke-width="0" x="19" y="10" width="1" height="1"></rect><rect ry="0" stroke-width="0" x="21" y="10" width="1" height="1"></rect><rect ry="0" stroke-width="0" x="24" y="10" width="1" height="1"></rect><rect ry="0" stroke-width="0" x="1" y="11" width="1" height="1"></rect><rect ry="0" stroke-width="0" x="2" y="11" width="1" height="1"></rect><rect ry="0" stroke-width="0" x="3" y="11" width="1" height="1"></rect><rect ry="0" stroke-width="0" x="4" y="11" width="1" height="1"></rect><rect ry="0" stroke-width="0" x="5" y="11" width="1" height="1"></rect><rect ry="0" stroke-width="0" x="11" y="11" width="1" height="1"></rect><rect ry="0" stroke-width="0" x="15" y="11" width="1" height="1"></rect><rect ry="0" stroke-width="0" x="18" y="11" width="1" height="1"></rect><rect ry="0" stroke-width="0" x="21" y="11" width="1" height="1"></rect><rect ry="0" stroke-width="0" x="22" y="11" width="1" height="1"></rect><rect ry="0" stroke-width="0" x="23" y="11" width="1" height="1"></rect><rect ry="0" stroke-width="0" x="24" y="11" width="1" height="1"></rect><rect ry="0" stroke-width="0" x="0" y="12" width="1" height="1"></rect><rect ry="0" stroke-width="0" x="2" y="12" width="1" height="1"></rect><rect ry="0" stroke-width="0" x="3" y="12" width="1" height="1"></rect><rect ry="0" stroke-width="0" x="4" y="12" width="1" height="1"></rect><rect ry="0" stroke-width="0" x="6" y="12" width="1" height="1"></rect><rect ry="0" stroke-width="0" x="8" y="12" width="1" height="1"></rect><rect ry="0" stroke-width="0" x="9" y="12" width="1" height="1"></rect><rect ry="0" stroke-width="0" x="10" y="12" width="1" height="1"></rect><rect ry="0" stroke-width="0" x="11" y="12" width="1" height="1"></rect><rect ry="0" stroke-width="0" x="15" y="12" width="1" height="1"></rect><rect ry="0" stroke-width="0" x="16" y="12" width="1" height="1"></rect><rect ry="0" stroke-width="0" x="18" y="12" width="1" height="1"></rect><rect ry="0" stroke-width="0" x="19" y="12" width="1" height="1"></rect><rect ry="0" stroke-width="0" x="24" y="12" width="1" height="1"></rect><rect ry="0" stroke-width="0" x="0" y="13" width="1" height="1"></rect><rect ry="0" stroke-width="0" x="1" y="13" width="1" height="1"></rect><rect ry="0" stroke-width="0" x="3" y="13" width="1" height="1"></rect><rect ry="0" stroke-width="0" x="5" y="13" width="1" height="1"></rect><rect ry="0" stroke-width="0" x="8" y="13" width="1" height="1"></rect><rect ry="0" stroke-width="0" x="10" y="13" width="1" height="1"></rect><rect ry="0" stroke-width="0" x="11" y="13" width="1" height="1"></rect><rect ry="0" stroke-width="0" x="13" y="13" width="1" height="1"></rect><rect ry="0" stroke-width="0" x="14" y="13" width="1" height="1"></rect><rect ry="0" stroke-width="0" x="15" y="13" width="1" height="1"></rect><rect ry="0" stroke-width="0" x="16" y="13" width="1" height="1"></rect><rect ry="0" stroke-width="0" x="20" y="13" width="1" height="1"></rect><rect ry="0" stroke-width="0" x="23" y="13" width="1" height="1"></rect><rect ry="0" stroke-width="0" x="0" y="14" width="1" height="1"></rect><rect ry="0" stroke-width="0" x="1" y="14" width="1" height="1"></rect><rect ry="0" stroke-width="0" x="2" y="14" width="1" height="1"></rect><rect ry="0" stroke-width="0" x="3" y="14" width="1" height="1"></rect><rect ry="0" stroke-width="0" x="4" y="14" width="1" height="1"></rect><rect ry="0" stroke-width="0" x="6" y="14" width="1" height="1"></rect><rect ry="0" stroke-width="0" x="7" y="14" width="1" height="1"></rect><rect ry="0" stroke-width="0" x="8" y="14" width="1" height="1"></rect><rect ry="0" stroke-width="0" x="9" y="14" width="1" height="1"></rect><rect ry="0" stroke-width="0" x="10" y="14" width="1" height="1"></rect><rect ry="0" stroke-width="0" x="13" y="14" width="1" height="1"></rect><rect ry="0" stroke-width="0" x="15" y="14" width="1" height="1"></rect><rect ry="0" stroke-width="0" x="17" y="14" width="1" height="1"></rect><rect ry="0" stroke-width="0" x="18" y="14" width="1" height="1"></rect><rect ry="0" stroke-width="0" x="20" y="14" width="1" height="1"></rect><rect ry="0" stroke-width="0" x="21" y="14" width="1" height="1"></rect><rect ry="0" stroke-width="0" x="22" y="14" width="1" height="1"></rect><rect ry="0" stroke-width="0" x="23" y="14" width="1" height="1"></rect><rect ry="0" stroke-width="0" x="24" y="14" width="1" height="1"></rect><rect ry="0" stroke-width="0" x="0" y="15" width="1" height="1"></rect><rect ry="0" stroke-width="0" x="2" y="15" width="1" height="1"></rect><rect ry="0" stroke-width="0" x="7" y="15" width="1" height="1"></rect><rect ry="0" stroke-width="0" x="8" y="15" width="1" height="1"></rect><rect ry="0" stroke-width="0" x="9" y="15" width="1" height="1"></rect><rect ry="0" stroke-width="0" x="17" y="15" width="1" height="1"></rect><rect ry="0" stroke-width="0" x="18" y="15" width="1" height="1"></rect><rect ry="0" stroke-width="0" x="20" y="15" width="1" height="1"></rect><rect ry="0" stroke-width="0" x="22" y="15" width="1" height="1"></rect><rect ry="0" stroke-width="0" x="24" y="15" width="1" height="1"></rect><rect ry="0" stroke-width="0" x="0" y="16" width="1" height="1"></rect><rect ry="0" stroke-width="0" x="3" y="16" width="1" height="1"></rect><rect ry="0" stroke-width="0" x="5" y="16" width="1" height="1"></rect><rect ry="0" stroke-width="0" x="6" y="16" width="1" height="1"></rect><rect ry="0" stroke-width="0" x="7" y="16" width="1" height="1"></rect><rect ry="0" stroke-width="0" x="9" y="16" width="1" height="1"></rect><rect ry="0" stroke-width="0" x="11" y="16" width="1" height="1"></rect><rect ry="0" stroke-width="0" x="12" y="16" width="1" height="1"></rect><rect ry="0" stroke-width="0" x="13" y="16" width="1" height="1"></rect><rect ry="0" stroke-width="0" x="15" y="16" width="1" height="1"></rect><rect ry="0" stroke-width="0" x="22" y="16" width="1" height="1"></rect><rect ry="0" stroke-width="0" x="23" y="16" width="1" height="1"></rect><rect ry="0" stroke-width="0" x="8" y="17" width="1" height="1"></rect><rect ry="0" stroke-width="0" x="10" y="17" width="1" height="1"></rect><rect ry="0" stroke-width="0" x="13" y="17" width="1" height="1"></rect><rect ry="0" stroke-width="0" x="23" y="17" width="1" height="1"></rect><rect ry="0" stroke-width="0" x="11" y="18" width="1" height="1"></rect><rect ry="0" stroke-width="0" x="12" y="18" width="1" height="1"></rect><rect ry="0" stroke-width="0" x="13" y="18" width="1" height="1"></rect><rect ry="0" stroke-width="0" x="14" y="18" width="1" height="1"></rect><rect ry="0" stroke-width="0" x="21" y="18" width="1" height="1"></rect><rect ry="0" stroke-width="0" x="24" y="18" width="1" height="1"></rect><rect ry="0" stroke-width="0" x="9" y="19" width="1" height="1"></rect><rect ry="0" stroke-width="0" x="10" y="19" width="1" height="1"></rect><rect ry="0" stroke-width="0" x="11" y="19" width="1" height="1"></rect><rect ry="0" stroke-width="0" x="13" y="19" width="1" height="1"></rect><rect ry="0" stroke-width="0" x="15" y="19" width="1" height="1"></rect><rect ry="0" stroke-width="0" x="24" y="19" width="1" height="1"></rect><rect ry="0" stroke-width="0" x="8" y="20" width="1" height="1"></rect><rect ry="0" stroke-width="0" x="9" y="20" width="1" height="1"></rect><rect ry="0" stroke-width="0" x="11" y="20" width="1" height="1"></rect><rect ry="0" stroke-width="0" x="12" y="20" width="1" height="1"></rect><rect ry="0" stroke-width="0" x="14" y="20" width="1" height="1"></rect><rect ry="0" stroke-width="0" x="15" y="20" width="1" height="1"></rect><rect ry="0" stroke-width="0" x="21" y="20" width="1" height="1"></rect><rect ry="0" stroke-width="0" x="23" y="20" width="1" height="1"></rect><rect ry="0" stroke-width="0" x="8" y="21" width="1" height="1"></rect><rect ry="0" stroke-width="0" x="11" y="21" width="1" height="1"></rect><rect ry="0" stroke-width="0" x="12" y="21" width="1" height="1"></rect><rect ry="0" stroke-width="0" x="13" y="21" width="1" height="1"></rect><rect ry="0" stroke-width="0" x="14" y="21" width="1" height="1"></rect><rect ry="0" stroke-width="0" x="15" y="21" width="1" height="1"></rect><rect ry="0" stroke-width="0" x="17" y="21" width="1" height="1"></rect><rect ry="0" stroke-width="0" x="18" y="21" width="1" height="1"></rect><rect ry="0" stroke-width="0" x="19" y="21" width="1" height="1"></rect><rect ry="0" stroke-width="0" x="21" y="21" width="1" height="1"></rect><rect ry="0" stroke-width="0" x="23" y="21" width="1" height="1"></rect><rect ry="0" stroke-width="0" x="24" y="21" width="1" height="1"></rect><rect ry="0" stroke-width="0" x="10" y="22" width="1" height="1"></rect><rect ry="0" stroke-width="0" x="11" y="22" width="1" height="1"></rect><rect ry="0" stroke-width="0" x="13" y="22" width="1" height="1"></rect><rect ry="0" stroke-width="0" x="15" y="22" width="1" height="1"></rect><rect ry="0" stroke-width="0" x="17" y="22" width="1" height="1"></rect><rect ry="0" stroke-width="0" x="19" y="22" width="1" height="1"></rect><rect ry="0" stroke-width="0" x="20" y="22" width="1" height="1"></rect><rect ry="0" stroke-width="0" x="22" y="22" width="1" height="1"></rect><rect ry="0" stroke-width="0" x="23" y="22" width="1" height="1"></rect><rect ry="0" stroke-width="0" x="24" y="22" width="1" height="1"></rect><rect ry="0" stroke-width="0" x="8" y="23" width="1" height="1"></rect><rect ry="0" stroke-width="0" x="9" y="23" width="1" height="1"></rect><rect ry="0" stroke-width="0" x="11" y="23" width="1" height="1"></rect><rect ry="0" stroke-width="0" x="19" y="23" width="1" height="1"></rect><rect ry="0" stroke-width="0" x="20" y="23" width="1" height="1"></rect><rect ry="0" stroke-width="0" x="22" y="23" width="1" height="1"></rect><rect ry="0" stroke-width="0" x="23" y="23" width="1" height="1"></rect><rect ry="0" stroke-width="0" x="24" y="23" width="1" height="1"></rect><rect ry="0" stroke-width="0" x="8" y="24" width="1" height="1"></rect><rect ry="0" stroke-width="0" x="11" y="24" width="1" height="1"></rect><rect ry="0" stroke-width="0" x="12" y="24" width="1" height="1"></rect><rect ry="0" stroke-width="0" x="16" y="24" width="1" height="1"></rect><rect ry="0" stroke-width="0" x="17" y="24" width="1" height="1"></rect><rect ry="0" stroke-width="0" x="21" y="24" width="1" height="1"></rect><rect ry="0" stroke-width="0" x="24" y="24" width="1" height="1"></rect></g><path d="M-1,-1h9a0,0 0 0 1 0,0v9a0,0 0 0 1 0,0h-9a0,0 0 0 1 0,0v-9a0,0 0 0 1 0,0zM0,0h7a0,0 0 0 1 0,0v7a0,0 0 0 1 0,0h-7a0,0 0 0 1 0,0v-7a0,0 0 0 1 0,0z" fill-rule="evenodd" fill-opacity="0" fill="rgb(0, 0, 0)"></path><path d="M0,0h7a0,0 0 0 1 0,0v7a0,0 0 0 1 0,0h-7a0,0 0 0 1 0,0v-7a0,0 0 0 1 0,0zM1,1h5a0,0 0 0 1 0,0v5a0,0 0 0 1 0,0h-5a0,0 0 0 1 0,0v-5a0,0 0 0 1 0,0z" fill-rule="evenodd" fill-opacity="1" fill="rgb(0, 0, 0)"></path><path d="M1,1h5a0,0 0 0 1 0,0v5a0,0 0 0 1 0,0h-5a0,0 0 0 1 0,0v-5a0,0 0 0 1 0,0zM2,2h3a0,0 0 0 1 0,0v3a0,0 0 0 1 0,0h-3a0,0 0 0 1 0,0v-3a0,0 0 0 1 0,0z" fill-rule="evenodd" fill-opacity="0" fill="rgb(0, 0, 0)"></path><rect x="2" y="2" fill-opacity="1" fill="rgb(0, 0, 0)" width="3" height="3" ry="0"></rect><path d="M17,-1h9a0,0 0 0 1 0,0v9a0,0 0 0 1 0,0h-9a0,0 0 0 1 0,0v-9a0,0 0 0 1 0,0zM18,0h7a0,0 0 0 1 0,0v7a0,0 0 0 1 0,0h-7a0,0 0 0 1 0,0v-7a0,0 0 0 1 0,0z" fill-rule="evenodd" fill-opacity="0" fill="rgb(0, 0, 0)"></path><path d="M18,0h7a0,0 0 0 1 0,0v7a0,0 0 0 1 0,0h-7a0,0 0 0 1 0,0v-7a0,0 0 0 1 0,0zM19,1h5a0,0 0 0 1 0,0v5a0,0 0 0 1 0,0h-5a0,0 0 0 1 0,0v-5a0,0 0 0 1 0,0z" fill-rule="evenodd" fill-opacity="1" fill="rgb(0, 0, 0)"></path><path d="M19,1h5a0,0 0 0 1 0,0v5a0,0 0 0 1 0,0h-5a0,0 0 0 1 0,0v-5a0,0 0 0 1 0,0zM20,2h3a0,0 0 0 1 0,0v3a0,0 0 0 1 0,0h-3a0,0 0 0 1 0,0v-3a0,0 0 0 1 0,0z" fill-rule="evenodd" fill-opacity="0" fill="rgb(0, 0, 0)"></path><rect x="20" y="2" fill-opacity="1" fill="rgb(0, 0, 0)" width="3" height="3" ry="0"></rect><path d="M-1,17h9a0,0 0 0 1 0,0v9a0,0 0 0 1 0,0h-9a0,0 0 0 1 0,0v-9a0,0 0 0 1 0,0zM0,18h7a0,0 0 0 1 0,0v7a0,0 0 0 1 0,0h-7a0,0 0 0 1 0,0v-7a0,0 0 0 1 0,0z" fill-rule="evenodd" fill-opacity="0" fill="rgb(0, 0, 0)"></path><path d="M0,18h7a0,0 0 0 1 0,0v7a0,0 0 0 1 0,0h-7a0,0 0 0 1 0,0v-7a0,0 0 0 1 0,0zM1,19h5a0,0 0 0 1 0,0v5a0,0 0 0 1 0,0h-5a0,0 0 0 1 0,0v-5a0,0 0 0 1 0,0z" fill-rule="evenodd" fill-opacity="1" fill="rgb(0, 0, 0)"></path><path d="M1,19h5a0,0 0 0 1 0,0v5a0,0 0 0 1 0,0h-5a0,0 0 0 1 0,0v-5a0,0 0 0 1 0,0zM2,20h3a0,0 0 0 1 0,0v3a0,0 0 0 1 0,0h-3a0,0 0 0 1 0,0v-3a0,0 0 0 1 0,0z" fill-rule="evenodd" fill-opacity="0" fill="rgb(0, 0, 0)"></path><rect x="2" y="20" fill-opacity="1" fill="rgb(0, 0, 0)" width="3" height="3" ry="0"></rect><g><path d="M16,16h5a0,0 0 0 1 0,0v5a0,0 0 0 1 0,0h-5a0,0 0 0 1 0,0v-5a0,0 0 0 1 0,0zM17,17h3a0,0 0 0 1 0,0v3a0,0 0 0 1 0,0h-3a0,0 0 0 1 0,0v-3a0,0 0 0 1 0,0z" fill-rule="evenodd" fill-opacity="1" fill="rgb(0, 0, 0)"></path><path d="M17,17h3a0,0 0 0 1 0,0v3a0,0 0 0 1 0,0h-3a0,0 0 0 1 0,0v-3a0,0 0 0 1 0,0zM18,18h1a0,0 0 0 1 0,0v1a0,0 0 0 1 0,0h-1a0,0 0 0 1 0,0v-1a0,0 0 0 1 0,0z" fill-rule="evenodd" fill-opacity="0" fill="rgb(0, 0, 0)"></path><rect x="18" y="18" fill-opacity="1" fill="rgb(0, 0, 0)" width="1" height="1" ry="0"></rect></g></g></svg>